<svg width="21" height="21" viewBox="0 0 21 21" fill="none" xmlns="http://www.w3.org/2000/svg">
<path d="M19.4824 5.42225C18.6135 8.8106 16.8501 11.9032 14.3767 14.3767C11.9033 16.8501 8.81062 18.6135 5.42227 19.4823C2.81508 20.146 0.599998 17.9041 0.599998 15.2129V13.9952C0.599998 13.323 1.14677 12.7835 1.81531 12.7165C2.92394 12.6063 4.0122 12.3445 5.04964 11.9384L6.90061 13.7894C9.91437 12.3446 12.3446 9.91435 13.7894 6.90059L11.9384 5.04961C12.3449 4.01224 12.6072 2.92397 12.7178 1.81529C12.7835 1.14553 13.323 0.599976 13.9952 0.599976H15.2129C17.9042 0.599976 20.146 2.81505 19.4824 5.42225Z" stroke="#181818" stroke-width="1.2" stroke-linecap="round" stroke-linejoin="round"/>
</svg>
