<svg width="621" height="127" viewBox="0 0 621 127" fill="none" xmlns="http://www.w3.org/2000/svg">
<path d="M596.083 0.083519L585.35 0.193403V2.06144C585.35 3.87454 585.416 3.92948 588.708 4.25913C600.955 5.63269 608.593 12.4455 610.305 23.5439C610.568 25.5218 611.029 26.3459 611.885 26.4558C612.939 26.6207 613.005 25.7416 613.005 13.7092C613.005 5.79752 612.741 0.687883 612.346 0.468115C611.424 -0.0263672 608.066 -0.0813084 596.083 0.083519Z" fill="white"/>
<path d="M205.432 1.23692C205.432 2.116 206.288 2.28083 211.621 2.55554C218.798 2.88519 222.551 4.20381 224.329 6.95093C225.448 8.59919 225.514 12.0056 225.514 61.4537C225.514 104.858 225.383 114.528 224.592 115.956C223.144 118.868 220.181 119.967 212.345 120.682C206.354 121.176 205.432 121.396 205.432 122.275C205.432 123.209 207.736 123.264 261.267 123.264C303.802 123.264 317.3 123.099 317.893 122.604C318.354 122.22 318.683 120.297 318.683 117.77C318.683 114.033 319.078 109.528 320.395 96.7267C320.79 92.7708 320.724 92.3862 319.671 92.606C318.881 92.7159 318.09 94.0894 316.905 97.386C313.547 107.221 306.765 114.528 298.469 117.33C294.716 118.594 294.255 118.594 271.605 118.594C246.453 118.594 246.189 118.539 243.358 115.407C241.975 113.869 241.975 113.594 241.778 61.9482C241.646 11.2364 241.646 9.91781 242.897 7.55529C244.675 4.25875 248.296 2.88519 256.263 2.5006C261.267 2.28083 262.057 2.116 262.057 1.23692C262.057 0.357849 260.411 0.302902 233.745 0.302902C207.078 0.302902 205.432 0.357849 205.432 1.23692Z" fill="white"/>
<path d="M333.96 1.18201C334.158 1.95121 335.277 2.17098 340.149 2.44569C347.524 2.88523 351.672 4.25879 353.384 6.89602C354.503 8.59923 354.569 11.5112 354.569 61.8383C354.569 114.638 354.569 114.968 353.186 116.451C350.553 119.418 348.972 119.967 341.4 120.682C335.738 121.176 334.158 121.506 334.158 122.165C334.158 122.879 337.779 122.989 362.8 122.989C387.82 122.989 391.442 122.879 391.442 122.165C391.442 121.506 389.927 121.176 384.857 120.737C381.236 120.352 377.68 119.912 376.956 119.693C374.191 118.814 372.084 116.561 371.359 113.704C370.898 111.781 370.701 94.529 370.833 60.3549C371.03 11.0716 371.03 9.75302 372.347 7.61027C374.322 4.36868 377.746 2.99512 385.318 2.50063C390.125 2.22592 391.442 1.95121 391.442 1.2919C391.442 0.577652 387.754 0.467766 362.602 0.357887C335.935 0.30294 333.763 0.357887 333.96 1.18201Z" fill="white"/>
<path d="M411.26 0.632729C410.601 1.51181 411.918 2.22606 414.881 2.55571C418.832 2.99525 422.914 4.53363 427.128 7.11592L430.618 9.25867V57.0585C430.618 87.8262 430.355 106.122 429.894 108.43C428.445 115.847 424.297 119.473 415.869 120.627C412.511 121.066 411.523 121.451 411.523 122.165C411.523 122.989 413.301 123.099 433.252 123.099C453.4 123.044 454.98 122.989 454.98 122.11C454.98 121.396 454.19 121.066 451.556 120.792C444.182 119.967 439.573 117.001 437.4 111.616C436.346 108.924 436.215 105.023 436.017 61.4539L435.82 14.2035L437.466 15.577C438.322 16.3462 463.276 41.3999 492.84 71.3435C533.598 112.605 547.03 125.791 548.215 125.901L549.795 126.066V71.6731C549.795 33.4882 549.993 16.4012 550.519 14.3683C552.561 6.45661 557.301 2.99525 567.244 2.281C568.495 2.17111 569.285 1.78652 569.417 1.18215C569.614 0.358017 567.902 0.248131 547.886 0.303078C527.474 0.303078 526.091 0.358017 526.091 1.2371C526.091 2.06123 526.816 2.281 529.713 2.55571C536.561 3.16008 540.643 6.07202 543.013 11.9508C544.067 14.4782 544.198 19.0384 544.396 58.8166C544.462 83.1011 544.33 102.935 544.067 102.935C543.408 102.88 453.005 10.0828 449.252 5.57754C444.313 -0.356232 446.42 0.193192 427.918 0.193192C418.964 0.193192 411.457 0.412964 411.26 0.632729Z" fill="white"/>
<path d="M44.1153 1.34758C41.0206 1.62229 29.9589 1.78712 19.4239 1.73218C0.724281 1.56735 0.329219 1.56735 0.329219 2.6662C0.329219 3.65516 0.921812 3.81998 6.65022 4.0947C13.9589 4.42435 17.3827 5.63308 19.4239 8.49008C20.7408 10.3032 20.7408 11.5119 20.9383 61.1798C21.07 97.3318 20.9383 112.826 20.4116 114.858C19.0947 119.968 14.2222 122.166 4.27984 122.166C0.263375 122.166 0 122.221 0 123.374V124.638L28.4445 124.583C56.033 124.528 56.9548 124.528 56.9548 123.484C56.9548 122.55 56.2964 122.385 50.2388 122.111C42.6009 121.726 40.033 120.792 37.8601 117.77C36.6091 115.902 36.5433 114.858 36.3457 88.9256L36.1482 62.0039H45.5639C50.7655 62.0039 56.033 61.7292 57.3499 61.3446L59.7203 60.7952L63.9343 66.2894C74.9302 80.7392 92.7738 101.562 102.124 110.903C108.115 116.946 115.951 123.1 118.782 124.089C120.626 124.748 124.576 124.913 138.272 124.913C154.008 124.913 155.457 124.858 156.576 123.924C157.63 123.045 157.893 121.561 158.222 113.32C158.486 108.046 158.947 101.947 159.342 99.6943C159.869 96.5077 159.803 95.4638 159.144 95.1341C157.959 94.5297 157.037 95.6835 156.115 99.09C153.877 107.057 146.832 115.573 140.181 118.155C137.35 119.254 137.218 119.309 134.914 118.265C125.893 114.474 111.539 101.892 95.3417 83.7061C88.889 76.3988 73.0865 57.3338 73.0865 56.8393C73.0865 56.6745 74.9302 55.5207 77.103 54.312C84.8726 50.0265 91.7861 42.6093 94.9466 35.192C97.0536 30.2472 97.0536 21.0169 94.8808 16.5117C91.5886 9.58893 83.0948 4.25953 71.7697 2.11678C65.9096 1.01793 52.0165 0.633331 44.1153 1.34758ZM61.3005 4.80894C73.0865 7.83077 78.8808 14.6986 80.3293 27.61C81.4487 37.6095 79.4075 46.0706 74.6668 50.6308C69.5968 55.5756 62.6174 57.4437 49.0536 57.4986C44.3787 57.4986 39.5062 57.2789 38.321 57.0591L36.1482 56.6745L36.3457 33.5438C36.5433 12.336 36.675 10.1933 37.7285 8.32526C38.9795 6.29239 40.8231 4.91883 43.1276 4.42435C46.0906 3.81998 58.4034 4.0947 61.3005 4.80894Z" fill="white"/>
<path d="M124.445 3.49005C124.445 5.63279 124.511 5.68774 126.684 5.68774C127.935 5.68774 130.766 6.18222 132.939 6.73164C141.959 9.09416 147.819 15.1928 149.531 24.2033C150.124 27.4449 150.519 28.2141 151.375 28.1042C152.297 27.9394 152.428 26.5109 152.165 15.0279C152.033 7.94037 151.836 1.95166 151.638 1.67695C151.507 1.45718 145.317 1.29235 137.877 1.29235H124.445V3.49005Z" fill="white"/>
<path d="M601.614 42.8836C601.351 43.0484 601.153 43.8176 601.153 44.5319C601.153 47.6087 599.573 50.9601 597.203 52.9381C595.227 54.5863 593.647 55.2456 590.026 56.0148L585.285 57.0587L585.482 59.2015C585.68 61.3442 585.746 61.3992 589.104 62.0035C596.412 63.3771 600.297 67.3329 601.087 74.0359C601.417 76.9478 601.68 77.3874 602.931 77.5522L604.379 77.717L604.05 60.7948C603.853 51.5096 603.589 43.5429 603.392 43.1583C603.128 42.4441 602.272 42.2793 601.614 42.8836Z" fill="white"/>
<path d="M140.642 44.9716C140.445 45.4661 140.247 46.6748 140.247 47.6638C140.247 48.5978 139.589 50.5208 138.799 51.8394C136.692 55.3557 133.531 56.8941 126.288 58.1578C124.642 58.4325 124.445 58.7072 124.445 60.5752C124.445 62.718 124.445 62.718 127.737 63.3223C135.836 64.8058 139.589 68.432 140.642 75.9041C140.972 78.7062 141.301 79.3105 142.288 79.3105C143.408 79.3105 143.474 78.4315 143.342 61.8938C143.21 46.2902 143.079 44.4222 142.157 44.2574C141.564 44.1475 140.906 44.4771 140.642 44.9716Z" fill="white"/>
<path d="M616.955 96.7267C614.19 107.276 606.223 115.737 596.873 118.044C595.161 118.484 591.803 118.868 589.498 118.868H585.35V121.066V123.264H601.087C612.873 123.264 616.955 123.099 617.482 122.55C617.811 122.22 618.47 117.055 618.865 111.176C619.326 105.298 619.852 99.0342 620.182 97.2761C620.708 93.9246 620.643 93.5949 618.931 93.5949C618.141 93.5949 617.614 94.4191 616.955 96.7267Z" fill="white"/>
</svg>
